<?xml version="1.0" standalone="no"?><!DOCTYPE svg PUBLIC "-//W3C//DTD SVG 1.1//EN" "http://www.w3.org/Graphics/SVG/1.1/DTD/svg11.dtd"><svg class="icon" height="512" viewBox="0 0 1024 1024" version="1.1" xmlns="http://www.w3.org/2000/svg"><path d="M512 803.41c12.329 0 268.928-385.992 268.928-534.482C780.928 120.438 660.49 0 512 0S243.072 120.438 243.072 268.928 499.671 803.41 512 803.41zM384.87 268.928c0-70.195 56.935-127.13 127.13-127.13 70.2 0 127.13 56.935 127.13 127.13 0 70.2-56.935 127.13-127.13 127.13s-127.13-56.93-127.13-127.13z" fill="#007AFF" /><path d="M706.391 736.66c58.48 19.672 95.222 48.088 95.222 79.688 0 59.387-129.7 107.546-289.613 107.546S222.387 875.74 222.387 816.348c0-31.6 36.741-60.011 95.222-79.688-119.112 26.43-199.475 76.386-199.475 133.658C118.134 955.177 294.528 1024 512 1024c217.472 0 393.866-68.823 393.866-153.687 0-57.267-80.363-107.223-199.475-133.653z" fill="#007AFF" /></svg>